<?xml version="1.0" encoding="UTF-8" standalone="no"?>
<svg id="Layer_1" xmlns:rdf="http://www.w3.org/1999/02/22-rdf-syntax-ns#" xmlns="http://www.w3.org/2000/svg" xml:space="preserve" version="1.1" y="0px" x="0px" xmlns:cc="http://creativecommons.org/ns#" enable-background="new -33 124 545 545" viewBox="-33 124 545 545" xmlns:dc="http://purl.org/dc/elements/1.1/"><metadata id="metadata47"><rdf:RDF><cc:Work rdf:about=""><dc:format>image/svg+xml</dc:format><dc:type rdf:resource="http://purl.org/dc/dcmitype/StillImage"/></cc:Work></rdf:RDF></metadata><g id="g3368" transform="translate(-148.4 -5.2586)"><g id="LINE_31_"><polygon id="polygon4" points="115.4 327.3 115.4 396 290.4 294.9 290.4 226.2" fill="#DC574D"/></g><g id="LINE_29_"><linearGradient id="polyline16_1_" y2="309.96" gradientUnits="userSpaceOnUse" y1="309.96" gradientTransform="matrix(1 0 0 -1 -148.4 739.26)" x2="263.8" x1="438.8"><stop id="stop5" stop-color="#DC574D" offset="0"/><stop id="stop7" stop-color="#D1524B" offset=".29"/><stop id="stop9" stop-color="#BA4548" offset=".74"/><stop id="stop11" stop-color="#AA3C45" offset="1"/></linearGradient><polyline id="polyline16" points="174.8 361.6 290.4 428.4 290.4 497 115.4 396" fill="url(#polyline16_1_)"/></g><g id="LINE_24_"><polygon id="polygon19" points="660.5 396 660.5 327.3 485.5 428.4 485.5 497" fill="#DC574D"/></g><g id="LINE_22_"><linearGradient id="polyline31_1_" y2="378.12" gradientUnits="userSpaceOnUse" y1="529.72" gradientTransform="matrix(1 0 0 -1 -148.4 739.26)" x2="750.29" x1="662.76"><stop id="stop18" stop-color="#DC574D" offset="0"/><stop id="stop20" stop-color="#D1524B" offset=".29"/><stop id="stop22" stop-color="#BA4548" offset=".74"/><stop id="stop24" stop-color="#AA3C45" offset="1"/></linearGradient><polyline id="polyline31" points="601.1 361.6 485.5 294.9 485.5 226.2 660.5 327.3" fill="url(#polyline31_1_)"/></g><g id="LINE_18_"><polygon id="polygon34" points="313.6 524.3 400.7 199 462.3 199 375.1 524.3" fill="#3E5C63"/></g></g>
<g id="g42" fill="#3E5C63"><path id="path34" d="m156.7 625c-3.3 0-5.7-0.9-7.5-2.7s-2.6-4.1-2.6-7.1c0-2.9 1.2-5.4 3.5-7.5s5.1-3.1 8.4-3.1 5.7 0.9 7.5 2.6c1.7 1.7 2.6 4 2.6 6.9s-1.2 5.4-3.5 7.6c-2.4 2.2-5.2 3.3-8.4 3.3z"/><path id="path36" d="m216.6 625c-4.8 0-7.8-1.8-9.2-5.5-5.8 3.7-11 5.5-15.6 5.5s-8.2-1.5-11-4.6-4.2-8.1-4.2-15c0-9.1 2.3-16.7 7-22.9 4.6-6.2 10.6-9.4 18-9.4 3.6 0 7.2 0.8 10.8 2.5 2.8-12.9 4.3-22.1 4.3-27.7 0-1.7-0.1-3.3-0.3-5 7.1-2 14-3 20.6-3 0.6 1 0.9 3.3 0.9 7s-1.7 13.6-5.2 29.7-5.2 26.9-5.2 32.4c0 2.9 0.5 4.3 1.5 4.3l4.9-1.6 2.1 5.8c-7 5-13.4 7.5-19.4 7.5zm-15.1-11.6c1.4 0 2.9-0.5 4.6-1.4v-0.1c0.3-6.2 1.8-15.9 4.5-29.1-1.5-0.5-2.6-0.7-3.3-0.7-1.6 0-3 0.8-4.3 2.4-1.2 1.6-2.2 3.7-2.9 6.2-1.3 5.2-2 10.3-2 15.2 0.1 5 1.2 7.5 3.4 7.5z"/><path id="path38" d="m237.8 602.9c0-9.4 2.9-16.8 8.7-22 5.8-5.3 12.9-7.9 21.4-7.9 5.9 0 10.6 1.3 14.2 3.8 3.6 2.6 5.3 6 5.3 10.2 0 3.1-1 5.9-2.9 8.3s-4.3 4.3-7 5.6c-5.8 2.6-10.9 4.1-15.2 4.7l-2.9 0.3c0.8 5 3.4 7.5 7.6 7.5 1.8 0 3.9-0.4 6.1-1.2s4-1.6 5.3-2.5l2-1.1 3.7 4.9-1.3 1.3c-0.5 0.5-1.6 1.4-3.3 2.7s-3.5 2.5-5.4 3.5-4.3 1.9-7.2 2.7-5.8 1.2-8.7 1.2c-6.5 0-11.5-1.9-15.1-5.7s-5.3-9.1-5.3-16.3zm28-9.8c2.2-3.3 3.3-6.1 3.3-8.3s-0.7-3.4-2-3.4c-1.9 0-3.7 1.5-5.3 4.5s-2.5 7.2-2.8 12.7c2.3-0.4 4.5-2.2 6.8-5.5z"/><path id="path40" d="m291.3 610.6l1.5-23.9c0-2.1-0.3-3.7-0.9-4.9s-1.7-2.8-3.5-5l0.5-1.7c5.9-1.4 10.8-2.1 14.7-2.1s6.6 0.9 8.2 2.7 2.4 4.3 2.4 7.6-0.6 8.1-1.8 14.4-1.8 10.5-1.8 12.5 0.6 3 1.7 3c1.8 0 4.2-1.7 7.2-5.2 2.9-3.5 4.9-6.9 5.8-10.2l-8.5-8.1c0.3-3.2 1-6.2 2.1-9s2-4.7 2.9-5.9l1.4-1.8c9.3 0 13.9 3.8 13.9 11.4 0 4.9-1.5 10.5-4.5 16.7s-7.3 11.7-12.7 16.5-11.1 7.2-16.9 7.2c-7.9 0.2-11.7-4.6-11.7-14.2z"/></g></svg>
